<?xml version="1.0" encoding="utf-8"?>
<!-- Generator: Adobe Illustrator 19.1.0, SVG Export Plug-In . SVG Version: 6.00 Build 0)  -->
<svg version="1.1" id="Layer_1" xmlns="http://www.w3.org/2000/svg" xmlns:xlink="http://www.w3.org/1999/xlink" x="0px" y="0px"
	 viewBox="0 0 11.1 10.3" style="enable-background:new 0 0 11.1 10.3;" xml:space="preserve">
<style type="text/css">
	.st0{fill:#FFFFFF;}
</style>
<g>
	<path class="st0" d="M11.1,7.5v2.1c0,0.2-0.1,0.3-0.2,0.5c-0.1,0.1-0.3,0.2-0.5,0.2H0.6c-0.2,0-0.3-0.1-0.5-0.2S0,9.8,0,9.6V7.5
		C0,7.3,0.1,7.2,0.2,7s0.3-0.2,0.5-0.2h3.1l0.9,0.9C4.9,8,5.2,8.1,5.6,8.1S6.2,8,6.5,7.8l0.9-0.9h3.1c0.2,0,0.3,0.1,0.5,0.2
		C11.1,7.2,11.1,7.3,11.1,7.5z M9,3.7C9,3.9,9,4,8.9,4.2l-3,3C5.8,7.2,5.7,7.3,5.6,7.3s-0.2,0-0.3-0.1l-3-3C2.1,4,2.1,3.9,2.2,3.7
		c0.1-0.2,0.2-0.3,0.4-0.3h1.7v-3c0-0.1,0-0.2,0.1-0.3C4.5,0,4.6,0,4.7,0h1.7c0.1,0,0.2,0,0.3,0.1c0.1,0.1,0.1,0.2,0.1,0.3v3h1.7
		C8.8,3.4,8.9,3.5,9,3.7z M8.4,9.3C8.5,9.2,8.6,9.1,8.6,9s0-0.2-0.1-0.3C8.4,8.6,8.3,8.6,8.1,8.6c-0.1,0-0.2,0-0.3,0.1
		C7.8,8.8,7.7,8.9,7.7,9s0,0.2,0.1,0.3C7.9,9.4,8,9.4,8.1,9.4C8.3,9.4,8.4,9.4,8.4,9.3z M10.2,9.3c0.1-0.1,0.1-0.2,0.1-0.3
		s0-0.2-0.1-0.3C10.1,8.6,10,8.6,9.9,8.6c-0.1,0-0.2,0-0.3,0.1S9.4,8.9,9.4,9s0,0.2,0.1,0.3s0.2,0.1,0.3,0.1
		C10,9.4,10.1,9.4,10.2,9.3z"/>
</g>
</svg>
